<svg width="64" height="65" viewBox="0 0 64 65" fill="none" xmlns="http://www.w3.org/2000/svg">
<path d="M31.2532 59.8606C32.2908 60.2744 33.4485 60.2697 34.4827 59.8473V59.8473C38.1022 58.3693 38.0472 53.2248 34.397 51.8243L6.34338 41.0612C2.52232 39.5952 0 35.9259 0 31.8332V31.8332C0 27.745 2.51696 24.0787 6.33211 22.6096L34.328 11.8294C37.9971 10.4165 38.1832 5.29485 34.6263 3.61943V3.61943C33.5064 3.09194 32.2179 3.05279 31.068 3.51131L8.51438 12.5052C4.43416 14.1323 0 11.1268 0 6.73412V6.73412C0 3.31825 2.75754 0.543045 6.17334 0.521234L54.805 0.210718C59.8737 0.178353 64 4.27836 64 9.3472V9.3472C64 13.1254 61.6745 16.5139 58.1491 17.8726L55.0334 19.0734C43.0942 23.6749 43.0726 40.5593 54.9999 45.1912L58.1644 46.4201C61.6823 47.7863 64 51.1727 64 54.9466V54.9466C64 60.0211 59.8691 64.1256 54.7948 64.0932L6.57815 63.7854C2.93836 63.7621 0 60.8049 0 57.1651V57.1651C0 52.4843 4.72492 49.2818 9.0727 51.0156L31.2532 59.8606Z" fill="#007BFF"/>
</svg>
