<svg width="437" height="512" viewBox="0 0 437 512" fill="none" xmlns="http://www.w3.org/2000/svg">
<path d="M356.67 410.527C356.67 428.315 344.244 443.685 326.851 447.412L27.8699 511.48C13.526 514.553 0 503.619 0 488.949C0 477.968 7.74876 468.513 18.5156 466.356L49.9386 460.061C113.617 447.303 117.521 357.733 55.1944 339.483L28.2518 331.594C11.5063 326.691 0 311.332 0 293.884C0 278.327 9.17774 264.235 23.406 257.945L156.854 198.95C225.026 168.813 214.062 68.87 140.978 54.2282L98.1294 45.6438C87.3626 43.4867 79.6138 34.0316 79.6138 23.0508C79.6138 8.38123 93.1399 -2.55342 107.484 0.520278L404.452 64.1564C423.019 68.135 436.284 84.5434 436.284 103.532C436.284 119.38 426.988 133.755 412.535 140.257L282.767 198.632C208.248 232.154 215.413 340.223 293.704 363.615L329.746 374.383C345.723 379.156 356.67 393.852 356.67 410.527Z" fill="#007BFF"/>
</svg>
